<svg width="331" height="73" viewBox="0 0 331 73" fill="none" xmlns="http://www.w3.org/2000/svg">
<g clip-path="url(#clip0_23_430)">
<path d="M74.4887 36.5C74.4887 16.3416 57.8139 1.88143e-07 37.2444 1.21204e-07C16.6749 5.42647e-08 -5.31802e-08 16.3416 -1.18781e-07 36.5C-1.84382e-07 56.6584 16.6749 73 37.2444 73C57.8139 73 74.4887 56.6584 74.4887 36.5Z" fill="#4E76FC"/>
<mask id="mask0_23_430" style="mask-type:alpha" maskUnits="userSpaceOnUse" x="11" y="11" width="53" height="51">
<path fill-rule="evenodd" clip-rule="evenodd" d="M26.5757 13.358C39.8219 9.01994 54.3882 13.5285 52.9298 18.644C52.8587 18.8938 52.7294 19.1479 52.5471 19.4059C58.1486 21.1113 61.6248 23.7733 61.0718 26.3737C60.8029 27.6385 59.5779 28.9471 57.7111 30.2726C61.592 32.0851 63.8676 34.4291 63.4313 36.9505C62.7261 41.0274 51.0062 45.4997 41.1366 49.266C38.5097 50.2685 36.0136 51.221 33.8914 52.1027C41.2228 52.3794 50.6712 51.2358 59.6552 47.1114C60.3937 46.7723 60.8953 46.6409 61.0558 46.9171C61.3956 47.5018 58.3682 49.7645 53.688 51.6684C45.2408 55.1048 36.0659 55.6806 28.605 54.7017C27.994 55.122 27.6109 55.5089 27.5073 55.8579C26.9632 57.6945 38.3289 60.978 51.4267 56.6986C52.5547 56.3301 53.0059 56.2326 53.146 56.4678C53.4509 56.98 50.58 58.484 47.9128 59.3575C34.6666 63.6955 20.1003 59.187 21.5587 54.0715C21.6311 53.8177 21.7632 53.5594 21.9503 53.2973C16.3462 51.5919 12.8682 48.9291 13.4214 46.3283C13.6897 45.0666 14.9094 43.7611 16.7688 42.4389C12.8932 40.6268 10.6212 38.2845 11.0571 35.765C11.7624 31.6881 23.4823 27.2158 33.3519 23.4495C35.9914 22.4421 38.4987 21.4855 40.6275 20.6003C33.2924 20.3199 23.8324 21.4613 14.8379 25.5905C14.0994 25.9296 13.5979 26.0608 13.4374 25.7848C13.0975 25.2001 16.1249 22.9375 20.8051 21.0336C29.2573 17.5951 38.4377 17.0207 45.9009 18.002C46.5018 17.5862 46.8787 17.2034 46.9812 16.8576C47.5253 15.0209 36.1596 11.7375 23.0618 16.0168C21.9338 16.3853 21.4826 16.4829 21.3425 16.2477C21.0376 15.7355 23.9085 14.2315 26.5757 13.358ZM49.5604 21.8482C46.987 23.404 43.2213 25.0355 39.1544 26.6575C42.7417 26.7005 46.2251 27.0681 49.3822 27.6898C51.8416 26.4764 53.4533 25.4169 53.6802 24.5715C53.9262 23.6545 52.3624 22.6316 49.5604 21.8482ZM30.6999 29.9342C23.4747 32.7247 17.2174 35.3013 16.938 37.1841C16.7931 38.1608 18.0363 39.2838 20.2786 40.2936C23.5037 38.5451 27.5417 36.7929 31.6879 35.0979C33.7255 34.2542 35.7887 33.4246 37.7932 32.6189C40.1144 31.6855 42.3568 30.7838 44.3898 29.9286C40.3249 29.4161 35.6151 29.32 30.6999 29.9342ZM25.09 45.0226C22.6425 46.2314 21.0391 47.2875 20.8129 48.1305C20.5666 49.0487 22.1353 50.0732 24.9449 50.857C27.518 49.3044 31.2761 47.6763 35.3341 46.058C31.7406 46.015 28.2513 45.6461 25.09 45.0226ZM43.7886 42.7813C38.8649 43.3966 34.1473 43.2991 30.0774 42.7843C32.1173 41.9257 34.3688 41.0205 36.7 40.0831C38.7042 39.2772 40.7677 38.4476 42.8055 37.6039C46.9448 35.9117 50.9762 34.1625 54.1988 32.4169C56.4482 33.4279 57.6957 34.5532 57.5506 35.5314C57.2711 37.4143 51.0138 39.9908 43.7886 42.7813Z" fill="black"/>
</mask>
<g mask="url(#mask0_23_430)">
<path d="M21.5587 54.0734C20.1005 59.189 34.6668 63.6976 47.913 59.3595C50.5801 58.4861 53.4509 56.9819 53.146 56.4697C53.0061 56.2346 52.5547 56.3321 51.4269 56.7005C38.3292 60.9799 26.9632 57.6965 27.5075 55.8598C27.9722 54.2915 34.0817 51.9602 41.1369 49.2679C51.0063 45.5016 62.7262 41.0294 63.4315 36.9525C63.8687 34.4246 61.5806 32.0754 57.6819 30.261C56.677 30.9675 55.4871 31.6831 54.1614 32.402C56.4344 33.4174 57.6966 34.5497 57.5506 35.5333C57.2408 37.622 49.5759 40.5639 41.3931 43.7046C32.241 47.2175 22.4409 50.9789 21.5587 54.0734Z" fill="url(#paint0_linear_23_430)"/>
<path d="M39.1545 26.6594C42.7688 26.7027 46.2776 27.0755 49.4533 27.7058C48.0436 28.413 46.3593 29.1621 44.5001 29.9444C40.4102 29.4197 35.6595 29.3163 30.7002 29.9361C31.4892 29.6314 32.29 29.3241 33.0955 29.0147C35.1181 28.2385 37.172 27.4501 39.1545 26.6594Z" fill="url(#paint1_linear_23_430)"/>
<path d="M52.9298 18.644C54.3882 13.5285 39.8219 9.01994 26.5757 13.358C23.9085 14.2315 21.0376 15.7355 21.3425 16.2477C21.4826 16.4829 21.9338 16.3853 23.0618 16.0168C36.1595 11.7375 47.5253 15.0209 46.9812 16.8576C46.5163 18.4259 40.4068 20.7572 33.3519 23.4495C23.4823 27.2158 11.7624 31.6881 11.0571 35.765C10.6198 38.2929 12.908 40.6421 16.8067 42.4566C17.8117 41.7499 19.0014 41.0344 20.3273 40.3155C18.0542 39.3001 16.792 38.1677 16.938 37.1841C17.2479 35.0955 24.9126 32.1536 33.0954 29.0128C42.2476 25.5 52.0478 21.7386 52.9298 18.644Z" fill="url(#paint2_linear_23_430)"/>
<path d="M35.3339 46.0579C31.7196 46.0147 28.2109 45.6418 25.0352 45.0116C26.4448 44.3044 28.1291 43.5553 29.9885 42.7729C34.0784 43.2977 38.8289 43.4011 43.7882 42.7813C42.9992 43.086 42.1986 43.3933 41.3929 43.7027C39.3705 44.4789 37.3164 45.2673 35.3339 46.0579Z" fill="url(#paint3_linear_23_430)"/>
<path d="M20.8049 21.0336C29.2569 17.5952 38.4373 17.0208 45.9005 18.002C44.7958 18.7663 42.9335 19.6412 40.6272 20.6003C33.2922 20.32 23.8322 21.4614 14.8376 25.5906C14.0991 25.9297 13.5976 26.0611 13.4371 25.7849C13.0972 25.2002 16.1246 22.9375 20.8049 21.0336Z" fill="url(#paint4_linear_23_430)"/>
<path d="M52.5469 19.406C51.9934 20.189 50.9511 21.0077 49.5603 21.8484C52.3625 22.6317 53.9262 23.6546 53.6802 24.5715C53.1811 26.4317 45.9765 29.3284 37.7932 32.6188C35.7889 33.4246 33.7257 34.2542 31.6881 35.0979C22.6823 38.7795 14.1863 42.7314 13.4213 46.3282C12.8682 48.9295 16.3467 51.5924 21.9514 53.2976C22.5099 52.5153 23.5552 51.6974 24.9471 50.8577C22.136 50.0738 20.5664 49.049 20.8129 48.1305C21.312 46.2702 28.5165 43.3735 36.7 40.0831C38.7041 39.2773 40.7671 38.4479 42.8047 37.6042C51.8107 33.9226 60.3069 29.9707 61.0718 26.3737C61.6248 23.7733 58.1486 21.1113 52.5469 19.406Z" fill="url(#paint5_linear_23_430)"/>
<path d="M33.8956 52.1029C31.5868 53.0619 29.7201 53.9372 28.6074 54.7021C36.0678 55.6805 45.2416 55.1046 53.6881 51.6684C58.3683 49.7645 61.3958 47.5019 61.0558 46.9172C60.8954 46.6412 60.3939 46.7724 59.6554 47.1115C50.6729 51.2351 41.2263 52.3791 33.8956 52.1029Z" fill="url(#paint6_linear_23_430)"/>
</g>
</g>
<path d="M112.812 25.1172V27.8174H100.815V50H97.5342V25.1172H112.812ZM123.665 46.8384V37.3193C123.665 36.5902 123.516 35.9578 123.22 35.4224C122.935 34.8755 122.502 34.4539 121.921 34.1577C121.34 33.8615 120.623 33.7134 119.768 33.7134C118.971 33.7134 118.27 33.8501 117.666 34.1235C117.074 34.397 116.606 34.7559 116.265 35.2002C115.934 35.6445 115.769 36.123 115.769 36.6357H112.607C112.607 35.9749 112.778 35.3198 113.12 34.6704C113.462 34.021 113.952 33.4342 114.59 32.9102C115.239 32.3747 116.014 31.9531 116.914 31.6455C117.826 31.3265 118.84 31.167 119.956 31.167C121.3 31.167 122.485 31.3949 123.511 31.8506C124.548 32.3063 125.356 32.9956 125.938 33.9185C126.53 34.8299 126.826 35.9749 126.826 37.3535V45.9668C126.826 46.582 126.877 47.2371 126.98 47.9321C127.094 48.6271 127.259 49.2253 127.476 49.7266V50H124.177C124.018 49.6354 123.892 49.1512 123.801 48.5474C123.71 47.9321 123.665 47.3625 123.665 46.8384ZM124.211 38.7891L124.246 41.0107H121.05C120.15 41.0107 119.347 41.0848 118.64 41.2329C117.934 41.3696 117.341 41.5804 116.863 41.8652C116.384 42.1501 116.02 42.509 115.769 42.9419C115.518 43.3634 115.393 43.859 115.393 44.4287C115.393 45.0098 115.524 45.5396 115.786 46.0181C116.048 46.4966 116.441 46.8783 116.965 47.1631C117.501 47.4365 118.156 47.5732 118.931 47.5732C119.899 47.5732 120.754 47.3682 121.494 46.958C122.235 46.5479 122.821 46.0465 123.254 45.4541C123.699 44.8617 123.938 44.2863 123.972 43.728L125.322 45.249C125.243 45.7275 125.026 46.2573 124.673 46.8384C124.32 47.4194 123.847 47.9777 123.254 48.5132C122.673 49.0373 121.978 49.4759 121.169 49.8291C120.372 50.1709 119.472 50.3418 118.469 50.3418C117.216 50.3418 116.117 50.0968 115.171 49.6069C114.237 49.117 113.507 48.4619 112.983 47.6416C112.471 46.8099 112.214 45.8813 112.214 44.856C112.214 43.8647 112.408 42.9932 112.795 42.2412C113.183 41.4779 113.741 40.8455 114.47 40.3442C115.199 39.8315 116.077 39.4442 117.102 39.1821C118.127 38.9201 119.272 38.7891 120.537 38.7891H124.211ZM138.704 41.1646H135.303V39.2163H138.447C139.325 39.2163 140.02 39.1081 140.532 38.8916C141.045 38.6637 141.41 38.3504 141.626 37.9517C141.842 37.5529 141.951 37.0858 141.951 36.5503C141.951 36.0718 141.825 35.6217 141.575 35.2002C141.335 34.7673 140.948 34.4198 140.413 34.1577C139.877 33.8843 139.159 33.7476 138.259 33.7476C137.53 33.7476 136.869 33.8786 136.277 34.1406C135.684 34.3913 135.212 34.7388 134.858 35.1831C134.517 35.616 134.346 36.106 134.346 36.6528H131.184C131.184 35.5249 131.503 34.5565 132.141 33.7476C132.791 32.9272 133.651 32.2949 134.722 31.8506C135.804 31.4062 136.983 31.1841 138.259 31.1841C139.33 31.1841 140.287 31.3037 141.13 31.543C141.985 31.7708 142.708 32.1126 143.301 32.5684C143.893 33.0127 144.343 33.571 144.651 34.2432C144.97 34.904 145.129 35.673 145.129 36.5503C145.129 37.1769 144.981 37.7694 144.685 38.3276C144.389 38.8859 143.962 39.3815 143.403 39.8145C142.845 40.236 142.167 40.5664 141.37 40.8057C140.583 41.0449 139.695 41.1646 138.704 41.1646ZM135.303 39.9683H138.704C139.809 39.9683 140.783 40.0765 141.626 40.293C142.469 40.498 143.175 40.8057 143.745 41.2158C144.315 41.626 144.742 42.133 145.027 42.7368C145.323 43.3293 145.471 44.0129 145.471 44.7876C145.471 45.6535 145.295 46.4339 144.941 47.1289C144.6 47.8125 144.11 48.3936 143.472 48.8721C142.834 49.3506 142.07 49.7152 141.182 49.9658C140.304 50.2165 139.33 50.3418 138.259 50.3418C137.063 50.3418 135.901 50.1367 134.773 49.7266C133.645 49.3164 132.716 48.6841 131.987 47.8296C131.258 46.9637 130.894 45.8643 130.894 44.5312H134.055C134.055 45.0895 134.232 45.6193 134.585 46.1206C134.938 46.6219 135.428 47.0264 136.055 47.334C136.693 47.6416 137.428 47.7954 138.259 47.7954C139.148 47.7954 139.889 47.6587 140.481 47.3853C141.073 47.1118 141.518 46.7472 141.814 46.2915C142.122 45.8358 142.275 45.3402 142.275 44.8047C142.275 44.1097 142.139 43.5514 141.865 43.1299C141.592 42.7083 141.17 42.4007 140.601 42.207C140.042 42.002 139.325 41.8994 138.447 41.8994H135.303V39.9683ZM161.895 31.5088V34.1235H152.546V31.5088H161.895ZM153.008 31.5088V50H149.846V31.5088H153.008ZM164.697 31.5088V50H161.519V31.5088H164.697ZM172.935 35.0635V57.1094H169.756V31.5088H172.661L172.935 35.0635ZM185.393 40.6006V40.9595C185.393 42.3039 185.234 43.5514 184.915 44.7021C184.596 45.8415 184.128 46.8327 183.513 47.6758C182.909 48.5189 182.163 49.174 181.274 49.6411C180.386 50.1082 179.366 50.3418 178.215 50.3418C177.042 50.3418 176.005 50.1481 175.105 49.7607C174.205 49.3734 173.442 48.8094 172.815 48.0688C172.188 47.3283 171.687 46.4396 171.311 45.4028C170.946 44.366 170.696 43.1982 170.559 41.8994V39.9854C170.696 38.6182 170.952 37.3934 171.328 36.311C171.704 35.2287 172.2 34.3058 172.815 33.5425C173.442 32.7677 174.199 32.181 175.088 31.7822C175.977 31.3721 177.002 31.167 178.164 31.167C179.326 31.167 180.357 31.3949 181.257 31.8506C182.157 32.2949 182.915 32.9329 183.53 33.7646C184.146 34.5964 184.607 35.5933 184.915 36.7554C185.234 37.9061 185.393 39.1878 185.393 40.6006ZM182.214 40.9595V40.6006C182.214 39.6777 182.118 38.8118 181.924 38.0029C181.73 37.1826 181.428 36.4648 181.018 35.8496C180.619 35.223 180.107 34.7331 179.48 34.3799C178.853 34.0153 178.107 33.833 177.241 33.833C176.444 33.833 175.749 33.9697 175.156 34.2432C174.575 34.5166 174.08 34.8869 173.669 35.354C173.259 35.8097 172.923 36.3338 172.661 36.9263C172.41 37.5073 172.222 38.1112 172.097 38.7378V43.1641C172.325 43.9616 172.644 44.7135 173.054 45.4199C173.464 46.1149 174.011 46.6789 174.695 47.1118C175.378 47.5334 176.239 47.7441 177.275 47.7441C178.13 47.7441 178.865 47.5675 179.48 47.2144C180.107 46.8498 180.619 46.3542 181.018 45.7275C181.428 45.1009 181.73 44.3831 181.924 43.5742C182.118 42.7539 182.214 41.8823 182.214 40.9595ZM188.589 40.9595V40.5664C188.589 39.2334 188.783 37.9972 189.17 36.8579C189.557 35.7072 190.116 34.7103 190.845 33.8672C191.574 33.0127 192.457 32.3519 193.494 31.8848C194.53 31.4062 195.693 31.167 196.98 31.167C198.279 31.167 199.447 31.4062 200.483 31.8848C201.532 32.3519 202.42 33.0127 203.149 33.8672C203.89 34.7103 204.454 35.7072 204.841 36.8579C205.229 37.9972 205.422 39.2334 205.422 40.5664V40.9595C205.422 42.2925 205.229 43.5286 204.841 44.668C204.454 45.8073 203.89 46.8042 203.149 47.6587C202.42 48.5018 201.537 49.1626 200.5 49.6411C199.475 50.1082 198.313 50.3418 197.014 50.3418C195.715 50.3418 194.548 50.1082 193.511 49.6411C192.474 49.1626 191.585 48.5018 190.845 47.6587C190.116 46.8042 189.557 45.8073 189.17 44.668C188.783 43.5286 188.589 42.2925 188.589 40.9595ZM191.75 40.5664V40.9595C191.75 41.8823 191.859 42.7539 192.075 43.5742C192.292 44.3831 192.616 45.1009 193.049 45.7275C193.494 46.3542 194.046 46.8498 194.707 47.2144C195.368 47.5675 196.137 47.7441 197.014 47.7441C197.88 47.7441 198.638 47.5675 199.287 47.2144C199.948 46.8498 200.495 46.3542 200.928 45.7275C201.361 45.1009 201.685 44.3831 201.902 43.5742C202.13 42.7539 202.244 41.8823 202.244 40.9595V40.5664C202.244 39.6549 202.13 38.7948 201.902 37.9858C201.685 37.1655 201.355 36.4421 200.911 35.8154C200.478 35.1774 199.931 34.6761 199.27 34.3115C198.621 33.9469 197.857 33.7646 196.98 33.7646C196.114 33.7646 195.351 33.9469 194.69 34.3115C194.041 34.6761 193.494 35.1774 193.049 35.8154C192.616 36.4421 192.292 37.1655 192.075 37.9858C191.859 38.7948 191.75 39.6549 191.75 40.5664ZM220.017 45.7959L226.306 31.5088H229.348L221.111 50H218.923L210.72 31.5088H213.762L220.017 45.7959ZM212.839 31.5088V50H209.678V31.5088H212.839ZM227.092 50V31.5088H230.271V50H227.092ZM247.224 23.4595H249.822C249.822 24.576 249.651 25.4647 249.309 26.1255C248.967 26.7749 248.5 27.2762 247.908 27.6294C247.327 27.9826 246.666 28.2503 245.925 28.4326C245.196 28.6149 244.438 28.7915 243.652 28.9624C242.673 29.1675 241.761 29.4922 240.918 29.9365C240.086 30.3695 239.368 30.9847 238.765 31.7822C238.172 32.5798 237.734 33.6165 237.449 34.8926C237.175 36.1686 237.101 37.7466 237.227 39.6265V41.1987H234.629V39.6265C234.629 37.5187 234.828 35.6787 235.227 34.1064C235.637 32.5342 236.213 31.2069 236.953 30.1245C237.694 29.0422 238.571 28.182 239.585 27.5439C240.61 26.9059 241.738 26.4673 242.969 26.228C243.857 26.0571 244.621 25.8748 245.259 25.6812C245.897 25.4761 246.381 25.2026 246.711 24.8608C247.053 24.519 247.224 24.0519 247.224 23.4595ZM243.481 32.5684C244.689 32.5684 245.766 32.7791 246.711 33.2007C247.657 33.6222 248.46 34.209 249.121 34.9609C249.782 35.7129 250.283 36.6016 250.625 37.627C250.978 38.641 251.155 39.7461 251.155 40.9424V41.3184C251.155 42.6058 250.967 43.8021 250.591 44.9072C250.226 46.001 249.685 46.958 248.967 47.7783C248.261 48.5872 247.395 49.2196 246.37 49.6753C245.356 50.131 244.199 50.3589 242.9 50.3589C241.602 50.3589 240.439 50.131 239.414 49.6753C238.4 49.2196 237.534 48.5872 236.816 47.7783C236.099 46.958 235.552 46.001 235.176 44.9072C234.811 43.8021 234.629 42.6058 234.629 41.3184V40.9424C234.629 40.6576 234.68 40.3784 234.783 40.105C234.885 39.8315 235.011 39.5524 235.159 39.2676C235.318 38.9827 235.461 38.6808 235.586 38.3618C236.007 37.3364 236.583 36.3851 237.312 35.5078C238.053 34.6305 238.936 33.9242 239.961 33.3887C240.998 32.8418 242.171 32.5684 243.481 32.5684ZM242.866 35.1489C241.704 35.1489 240.747 35.4167 239.995 35.9521C239.255 36.4876 238.702 37.1997 238.337 38.0884C237.973 38.9657 237.791 39.917 237.791 40.9424V41.3184C237.791 42.1842 237.893 43.0046 238.098 43.7793C238.303 44.554 238.611 45.2433 239.021 45.8472C239.443 46.4396 239.972 46.9067 240.61 47.2485C241.26 47.5903 242.023 47.7612 242.9 47.7612C243.778 47.7612 244.535 47.5903 245.173 47.2485C245.811 46.9067 246.335 46.4396 246.746 45.8472C247.156 45.2433 247.463 44.554 247.668 43.7793C247.874 43.0046 247.976 42.1842 247.976 41.3184V40.9424C247.976 40.1676 247.874 39.4328 247.668 38.7378C247.463 38.0428 247.15 37.4276 246.729 36.8921C246.318 36.3566 245.789 35.9351 245.139 35.6274C244.501 35.3084 243.743 35.1489 242.866 35.1489ZM265.647 46.8384V37.3193C265.647 36.5902 265.499 35.9578 265.203 35.4224C264.918 34.8755 264.485 34.4539 263.904 34.1577C263.323 33.8615 262.605 33.7134 261.75 33.7134C260.953 33.7134 260.252 33.8501 259.648 34.1235C259.056 34.397 258.589 34.7559 258.247 35.2002C257.917 35.6445 257.751 36.123 257.751 36.6357H254.59C254.59 35.9749 254.761 35.3198 255.103 34.6704C255.444 34.021 255.934 33.4342 256.572 32.9102C257.222 32.3747 257.996 31.9531 258.896 31.6455C259.808 31.3265 260.822 31.167 261.938 31.167C263.283 31.167 264.468 31.3949 265.493 31.8506C266.53 32.3063 267.339 32.9956 267.92 33.9185C268.512 34.8299 268.809 35.9749 268.809 37.3535V45.9668C268.809 46.582 268.86 47.2371 268.962 47.9321C269.076 48.6271 269.242 49.2253 269.458 49.7266V50H266.16C266 49.6354 265.875 49.1512 265.784 48.5474C265.693 47.9321 265.647 47.3625 265.647 46.8384ZM266.194 38.7891L266.228 41.0107H263.032C262.132 41.0107 261.329 41.0848 260.623 41.2329C259.916 41.3696 259.324 41.5804 258.845 41.8652C258.367 42.1501 258.002 42.509 257.751 42.9419C257.501 43.3634 257.375 43.859 257.375 44.4287C257.375 45.0098 257.507 45.5396 257.769 46.0181C258.031 46.4966 258.424 46.8783 258.948 47.1631C259.483 47.4365 260.138 47.5732 260.913 47.5732C261.882 47.5732 262.736 47.3682 263.477 46.958C264.217 46.5479 264.804 46.0465 265.237 45.4541C265.681 44.8617 265.92 44.2863 265.955 43.728L267.305 45.249C267.225 45.7275 267.008 46.2573 266.655 46.8384C266.302 47.4194 265.829 47.9777 265.237 48.5132C264.656 49.0373 263.961 49.4759 263.152 49.8291C262.354 50.1709 261.454 50.3418 260.452 50.3418C259.198 50.3418 258.099 50.0968 257.153 49.6069C256.219 49.117 255.49 48.4619 254.966 47.6416C254.453 46.8099 254.197 45.8813 254.197 44.856C254.197 43.8647 254.39 42.9932 254.778 42.2412C255.165 41.4779 255.723 40.8455 256.453 40.3442C257.182 39.8315 258.059 39.4442 259.084 39.1821C260.11 38.9201 261.255 38.7891 262.52 38.7891H266.194ZM286.326 39.5239V42.0874H276.55V39.5239H286.326ZM277.217 31.5088V50H274.055V31.5088H277.217ZM288.889 31.5088V50H285.71V31.5088H288.889ZM297.417 31.5088V50H294.255V31.5088H297.417ZM309.551 31.5088L300.784 42.1045H296.357L295.879 39.3359H299.502L305.706 31.5088H309.551ZM306.15 50L299.348 41.626L301.382 39.3359L310.166 50H306.15Z" fill="black"/>
<defs>
<linearGradient id="paint0_linear_23_430" x1="48.1828" y1="61.1674" x2="33.9393" y2="26.5126" gradientUnits="userSpaceOnUse">
<stop offset="0.0170679" stop-color="white"/>
<stop offset="0.526301" stop-color="white"/>
<stop offset="0.627383" stop-color="white" stop-opacity="0.48"/>
<stop offset="0.766561" stop-color="white" stop-opacity="0.38"/>
<stop offset="0.99877" stop-color="white" stop-opacity="0"/>
</linearGradient>
<linearGradient id="paint1_linear_23_430" x1="48.1829" y1="61.1674" x2="33.9394" y2="26.5125" gradientUnits="userSpaceOnUse">
<stop offset="0.0170679" stop-color="white"/>
<stop offset="0.526301" stop-color="white"/>
<stop offset="0.627383" stop-color="white" stop-opacity="0.48"/>
<stop offset="0.766561" stop-color="white" stop-opacity="0.38"/>
<stop offset="0.99877" stop-color="white" stop-opacity="0"/>
</linearGradient>
<linearGradient id="paint2_linear_23_430" x1="26.3696" y1="11.55" x2="40.4871" y2="47.7548" gradientUnits="userSpaceOnUse">
<stop offset="0.518227" stop-color="white"/>
<stop offset="0.640087" stop-color="white" stop-opacity="0.5"/>
<stop offset="0.755441" stop-color="white" stop-opacity="0.38"/>
<stop offset="0.932251" stop-color="white" stop-opacity="0"/>
</linearGradient>
<linearGradient id="paint3_linear_23_430" x1="26.3694" y1="11.55" x2="40.4869" y2="47.7548" gradientUnits="userSpaceOnUse">
<stop offset="0.518227" stop-color="white"/>
<stop offset="0.640087" stop-color="white" stop-opacity="0.5"/>
<stop offset="0.755441" stop-color="white" stop-opacity="0.38"/>
<stop offset="0.932251" stop-color="white" stop-opacity="0"/>
</linearGradient>
<linearGradient id="paint4_linear_23_430" x1="27.5387" y1="17.2503" x2="46.0484" y2="56.6073" gradientUnits="userSpaceOnUse">
<stop offset="0.0257788" stop-color="white"/>
<stop offset="0.196861" stop-color="white" stop-opacity="0.24"/>
<stop offset="0.2769" stop-color="white" stop-opacity="0.26"/>
<stop offset="0.413219" stop-color="white"/>
<stop offset="0.586219" stop-color="white"/>
<stop offset="0.726762" stop-color="white" stop-opacity="0.26"/>
<stop offset="0.775702" stop-color="white" stop-opacity="0.24"/>
<stop offset="0.950969" stop-color="white"/>
</linearGradient>
<linearGradient id="paint5_linear_23_430" x1="27.5389" y1="17.2502" x2="46.0486" y2="56.6072" gradientUnits="userSpaceOnUse">
<stop offset="0.0257788" stop-color="white"/>
<stop offset="0.196861" stop-color="white" stop-opacity="0.24"/>
<stop offset="0.2769" stop-color="white" stop-opacity="0.26"/>
<stop offset="0.413219" stop-color="white"/>
<stop offset="0.586219" stop-color="white"/>
<stop offset="0.726762" stop-color="white" stop-opacity="0.26"/>
<stop offset="0.775702" stop-color="white" stop-opacity="0.24"/>
<stop offset="0.950969" stop-color="white"/>
</linearGradient>
<linearGradient id="paint6_linear_23_430" x1="27.539" y1="17.2503" x2="46.0487" y2="56.6073" gradientUnits="userSpaceOnUse">
<stop offset="0.0257788" stop-color="white"/>
<stop offset="0.196861" stop-color="white" stop-opacity="0.24"/>
<stop offset="0.2769" stop-color="white" stop-opacity="0.26"/>
<stop offset="0.413219" stop-color="white"/>
<stop offset="0.586219" stop-color="white"/>
<stop offset="0.726762" stop-color="white" stop-opacity="0.26"/>
<stop offset="0.775702" stop-color="white" stop-opacity="0.24"/>
<stop offset="0.950969" stop-color="white"/>
</linearGradient>
<clipPath id="clip0_23_430">
<rect width="74.4887" height="73" fill="white"/>
</clipPath>
</defs>
</svg>
