<svg width="42" height="42" viewBox="0 0 42 42" fill="none" xmlns="http://www.w3.org/2000/svg"><rect width="42" height="42" rx="21" fill="#4E76FC"></rect><mask id="mask0_17918_73904" maskUnits="userSpaceOnUse" x="6" y="6" width="30" height="30" style="mask-type: alpha;"><path fill-rule="evenodd" clip-rule="evenodd" d="M14.9846 7.68541C22.4534 5.18954 30.6665 7.7835 29.8442 10.7267C29.8041 10.8704 29.7312 11.0166 29.6284 11.165C32.7868 12.1462 34.7468 13.6778 34.435 15.1739C34.2834 15.9016 33.5927 16.6545 32.5401 17.4171C34.7283 18.4599 36.0114 19.8085 35.7654 21.2592C35.3678 23.6048 28.7596 26.1779 23.1947 28.3448C21.7135 28.9216 20.3061 29.4696 19.1095 29.9769C23.2433 30.1361 28.5707 29.4781 33.6363 27.1052C34.0527 26.9101 34.3355 26.8345 34.426 26.9934C34.6176 27.3298 32.9106 28.6316 30.2717 29.727C25.5088 31.7041 20.3356 32.0354 16.1288 31.4722C15.7843 31.714 15.5683 31.9366 15.5099 32.1374C15.2031 33.1941 21.6116 35.0832 28.9967 32.6211C29.6327 32.4091 29.8871 32.353 29.9661 32.4883C30.138 32.783 28.5193 33.6483 27.0154 34.1509C19.5466 36.6467 11.3335 34.0528 12.1558 31.1096C12.1966 30.9636 12.2711 30.815 12.3766 30.6642C9.21678 29.683 7.25574 28.151 7.56761 26.6546C7.71892 25.9287 8.40664 25.1776 9.45502 24.4169C7.2698 23.3743 5.98878 22.0267 6.23455 20.5771C6.63223 18.2315 13.2404 15.6584 18.8053 13.4915C20.2936 12.9119 21.7073 12.3615 22.9076 11.8522C18.7718 11.6909 13.4378 12.3476 8.36632 14.7233C7.94992 14.9184 7.66714 14.9939 7.57665 14.8351C7.38499 14.4987 9.092 13.1969 11.7309 12.1015C16.4966 10.1232 21.6729 9.79274 25.881 10.3573C26.2198 10.1181 26.4323 9.89783 26.4901 9.69889C26.7969 8.64217 20.3884 6.75308 13.0033 9.21516C12.3673 9.42717 12.1129 9.4833 12.0339 9.34798C11.862 9.05327 13.4807 8.18795 14.9846 7.68541ZM27.9444 12.5702C26.4934 13.4653 24.3701 14.404 22.077 15.3372C24.0997 15.3619 26.0638 15.5734 27.8439 15.9311C29.2306 15.233 30.1394 14.6234 30.2673 14.137C30.406 13.6094 29.5243 13.0209 27.9444 12.5702ZM17.31 17.2224C13.2361 18.8279 9.70797 20.3103 9.55044 21.3936C9.46873 21.9555 10.1697 22.6016 11.434 23.1826C13.2525 22.1766 15.5293 21.1685 17.8671 20.1933C19.016 19.7079 20.1793 19.2306 21.3095 18.767C22.6183 18.23 23.8827 17.7112 25.029 17.2192C22.737 16.9243 20.0814 16.869 17.31 17.2224ZM14.1469 25.9034C12.7669 26.5989 11.8628 27.2065 11.7353 27.6915C11.5964 28.2198 12.4809 28.8092 14.0651 29.2602C15.5159 28.3669 17.6349 27.4302 19.923 26.4991C17.8968 26.4744 15.9294 26.2621 14.1469 25.9034ZM24.69 24.6139C21.9138 24.9679 19.2538 24.9118 16.959 24.6156C18.1092 24.1216 19.3787 23.6008 20.6931 23.0615L20.6931 23.0615L20.6933 23.0615C21.8234 22.5978 22.9867 22.1205 24.1357 21.6351C26.4696 20.6615 28.7427 19.6551 30.5597 18.6508C31.828 19.2325 32.5314 19.8799 32.4496 20.4427C32.292 21.526 28.7639 23.0084 24.69 24.6139Z" fill="black"></path></mask><g mask="url(#mask0_17918_73904)"><path d="M12.1558 31.1107C11.3336 34.0539 19.5467 36.6479 27.0155 34.152C28.5193 33.6495 30.138 32.7841 29.9661 32.4894C29.8872 32.3541 29.6327 32.4102 28.9968 32.6222C21.6117 35.0843 15.2031 33.1952 15.51 32.1385C15.772 31.2362 19.2168 29.8949 23.1948 28.3459C28.7596 26.179 35.3678 23.6059 35.7655 21.2603C36.012 19.8059 34.7219 18.4543 32.5236 17.4104C31.957 17.8169 31.2861 18.2286 30.5386 18.6422C31.8202 19.2264 32.5319 19.8779 32.4496 20.4438C32.2749 21.6455 27.9531 23.3381 23.3393 25.1451C18.1789 27.1662 12.6532 29.3303 12.1558 31.1107Z" fill="url(#paint0_linear_17918_73904)"></path><path d="M22.077 15.3383C24.1149 15.3632 26.0933 15.5777 27.8839 15.9403C27.0891 16.3472 26.1394 16.7782 25.0911 17.2283C22.785 16.9264 20.1064 16.8669 17.3101 17.2235C17.755 17.0482 18.2065 16.8714 18.6607 16.6934C19.8011 16.2468 20.9592 15.7932 22.077 15.3383Z" fill="url(#paint1_linear_17918_73904)"></path><path d="M29.8442 10.7267C30.6665 7.7835 22.4534 5.18954 14.9846 7.68541C13.4807 8.18795 11.862 9.05327 12.0339 9.34798C12.1129 9.4833 12.3673 9.42717 13.0033 9.21516C20.3884 6.75308 26.7969 8.64217 26.4901 9.69889C26.228 10.6012 22.7832 11.9425 18.8053 13.4915C13.2404 15.6584 6.63223 18.2315 6.23455 20.5771C5.98798 22.0315 7.27816 23.3831 9.47641 24.4271C10.0431 24.0205 10.7139 23.6088 11.4615 23.1952C10.1798 22.611 9.46814 21.9595 9.55044 21.3936C9.72517 20.1919 14.0469 18.4993 18.6607 16.6923C23.8211 14.6712 29.3469 12.5071 29.8442 10.7267Z" fill="url(#paint2_linear_17918_73904)"></path><path d="M19.923 26.4991C17.8851 26.4742 15.9067 26.2597 14.1161 25.8971C14.9109 25.4902 15.8606 25.0592 16.909 24.6091C19.2151 24.911 21.8936 24.9705 24.6899 24.6139C24.245 24.7892 23.7936 24.966 23.3393 25.144C22.199 25.5906 21.0408 26.0442 19.923 26.4991Z" fill="url(#paint3_linear_17918_73904)"></path><path d="M11.7309 12.1015C16.4965 10.1232 21.6728 9.79276 25.8809 10.3573C25.258 10.797 24.208 11.3004 22.9076 11.8522C18.7718 11.6909 13.4378 12.3476 8.36629 14.7233C7.94989 14.9184 7.6671 14.994 7.57661 14.8351C7.38495 14.4987 9.09196 13.1969 11.7309 12.1015Z" fill="url(#paint4_linear_17918_73904)"></path><path d="M29.6283 11.1651C29.3162 11.6156 28.7285 12.0866 27.9443 12.5703C29.5243 13.021 30.406 13.6095 30.2673 14.137C29.9859 15.2073 25.9236 16.8739 21.3095 18.767C20.1794 19.2306 19.0161 19.7079 17.8672 20.1933C12.7893 22.3115 7.99889 24.5852 7.56758 26.6546C7.25568 28.1512 9.21702 29.6833 12.3772 30.6644C12.6921 30.2143 13.2815 29.7437 14.0663 29.2606C12.4813 28.8096 11.5963 28.22 11.7353 27.6915C12.0167 26.6212 16.0789 24.9546 20.6931 23.0615C21.8231 22.5979 22.9863 22.1207 24.1352 21.6353C29.2132 19.5171 34.0037 17.2434 34.435 15.1739C34.7468 13.6778 32.7868 12.1462 29.6283 11.1651Z" fill="url(#paint5_linear_17918_73904)"></path><path d="M19.1118 29.977C17.81 30.5287 16.7575 31.0323 16.1301 31.4724C20.3366 32.0353 25.5092 31.704 30.2717 29.727C32.9106 28.6316 34.6176 27.3298 34.4259 26.9934C34.3355 26.8346 34.0527 26.9101 33.6363 27.1052C28.5716 29.4777 23.2452 30.1359 19.1118 29.977Z" fill="url(#paint6_linear_17918_73904)"></path></g><defs><linearGradient id="paint0_linear_17918_73904" x1="27.1676" y1="35.1922" x2="18.8551" y2="15.3718" gradientUnits="userSpaceOnUse"><stop offset="0.0170679" stop-color="white"></stop><stop offset="0.526301" stop-color="white"></stop><stop offset="0.627383" stop-color="white" stop-opacity="0.48"></stop><stop offset="0.766561" stop-color="white" stop-opacity="0.38"></stop><stop offset="0.99877" stop-color="white" stop-opacity="0"></stop></linearGradient><linearGradient id="paint1_linear_17918_73904" x1="27.1676" y1="35.1922" x2="18.8551" y2="15.3718" gradientUnits="userSpaceOnUse"><stop offset="0.0170679" stop-color="white"></stop><stop offset="0.526301" stop-color="white"></stop><stop offset="0.627383" stop-color="white" stop-opacity="0.48"></stop><stop offset="0.766561" stop-color="white" stop-opacity="0.38"></stop><stop offset="0.99877" stop-color="white" stop-opacity="0"></stop></linearGradient><linearGradient id="paint2_linear_17918_73904" x1="14.8684" y1="6.6452" x2="23.1116" y2="27.3627" gradientUnits="userSpaceOnUse"><stop offset="0.518227" stop-color="white"></stop><stop offset="0.640087" stop-color="white" stop-opacity="0.5"></stop><stop offset="0.755441" stop-color="white" stop-opacity="0.38"></stop><stop offset="0.932251" stop-color="white" stop-opacity="0"></stop></linearGradient><linearGradient id="paint3_linear_17918_73904" x1="14.8684" y1="6.6452" x2="23.1116" y2="27.3627" gradientUnits="userSpaceOnUse"><stop offset="0.518227" stop-color="white"></stop><stop offset="0.640087" stop-color="white" stop-opacity="0.5"></stop><stop offset="0.755441" stop-color="white" stop-opacity="0.38"></stop><stop offset="0.932251" stop-color="white" stop-opacity="0"></stop></linearGradient><linearGradient id="paint4_linear_17918_73904" x1="15.5277" y1="9.92477" x2="26.3138" y2="32.4008" gradientUnits="userSpaceOnUse"><stop offset="0.0257788" stop-color="white"></stop><stop offset="0.196861" stop-color="white" stop-opacity="0.24"></stop><stop offset="0.2769" stop-color="white" stop-opacity="0.26"></stop><stop offset="0.413219" stop-color="white"></stop><stop offset="0.586219" stop-color="white"></stop><stop offset="0.726762" stop-color="white" stop-opacity="0.26"></stop><stop offset="0.775702" stop-color="white" stop-opacity="0.24"></stop><stop offset="0.950969" stop-color="white"></stop></linearGradient><linearGradient id="paint5_linear_17918_73904" x1="15.5277" y1="9.92477" x2="26.3138" y2="32.4008" gradientUnits="userSpaceOnUse"><stop offset="0.0257788" stop-color="white"></stop><stop offset="0.196861" stop-color="white" stop-opacity="0.24"></stop><stop offset="0.2769" stop-color="white" stop-opacity="0.26"></stop><stop offset="0.413219" stop-color="white"></stop><stop offset="0.586219" stop-color="white"></stop><stop offset="0.726762" stop-color="white" stop-opacity="0.26"></stop><stop offset="0.775702" stop-color="white" stop-opacity="0.24"></stop><stop offset="0.950969" stop-color="white"></stop></linearGradient><linearGradient id="paint6_linear_17918_73904" x1="15.5277" y1="9.92477" x2="26.3138" y2="32.4008" gradientUnits="userSpaceOnUse"><stop offset="0.0257788" stop-color="white"></stop><stop offset="0.196861" stop-color="white" stop-opacity="0.24"></stop><stop offset="0.2769" stop-color="white" stop-opacity="0.26"></stop><stop offset="0.413219" stop-color="white"></stop><stop offset="0.586219" stop-color="white"></stop><stop offset="0.726762" stop-color="white" stop-opacity="0.26"></stop><stop offset="0.775702" stop-color="white" stop-opacity="0.24"></stop><stop offset="0.950969" stop-color="white"></stop></linearGradient></defs></svg>